<?xml version="1.0" encoding="utf-8" ?><svg xmlns="http://www.w3.org/2000/svg" xmlns:xlink="http://www.w3.org/1999/xlink" width="512" height="512" viewBox="0 0 512 512"><path d="M184.939 156.098C213.226 154.535 237.441 176.159 239.076 204.442C240.711 232.724 219.149 256.995 190.87 258.702C162.49 260.415 138.113 238.758 136.472 210.373C134.831 181.989 156.551 157.666 184.939 156.098Z"/><path d="M184.939 351.098C213.226 349.535 237.441 371.159 239.076 399.442C240.711 427.724 219.149 451.995 190.87 453.702C162.49 455.415 138.113 433.758 136.472 405.373C134.831 376.989 156.551 352.666 184.939 351.098Z"/><path d="M320.173 58.3698C348.449 56.1598 373.169 77.2765 375.404 105.55C377.639 133.824 356.544 158.563 328.272 160.822C299.965 163.085 275.189 141.958 272.951 113.649C270.713 85.3398 291.862 60.5826 320.173 58.3698Z"/><path d="M318.988 253.388C347.222 250.519 372.435 271.083 375.301 299.317C378.168 327.552 357.601 352.763 329.367 355.626C301.136 358.49 275.929 337.926 273.063 309.696C270.197 281.465 290.758 256.256 318.988 253.388Z"/><path d="M0 298.284C0.899948 296.371 0.980165 294.428 1.44687 292.411C1.86443 290.605 2.49904 288.673 3.1321 286.928C7.94438 273.573 18.0941 262.821 31.1498 257.248C43.8644 251.851 58.2091 251.761 70.9902 256.999C83.5946 262.208 93.6159 272.207 98.8529 284.8C104.044 297.417 104.039 311.574 98.8383 324.187C93.4378 337.053 83.0975 347.212 70.1379 352.385C57.456 357.361 43.3183 357.104 30.8257 351.67C15.3745 344.91 4.13941 331.048 1.07124 314.719C0.869799 313.647 0.497485 311.662 0 310.739L0 298.284Z"/><path d="M0 103.284C1.44243 100.181 1.86157 94.9111 3.34187 91.2158C8.57844 78.1433 18.2828 67.6578 31.3572 62.24C44.0583 56.9228 58.3553 56.8894 71.0812 62.1471C83.8179 67.4365 93.8989 77.6162 99.0639 90.4038C104.109 103.046 103.962 117.167 98.657 129.702C93.1881 142.437 82.8619 152.462 69.9707 157.552C57.3475 162.461 43.2927 162.164 30.888 156.726C18.3191 151.24 8.44878 140.979 3.45388 128.207C2.74111 126.364 2.24883 124.894 1.74521 123.008C1.26913 121.224 0.757197 117.236 0 115.739L0 103.284Z"/><path d="M512 213.148C511.5 214.237 510.65 218.625 510.319 220.049C509.53 223.307 508.408 226.475 506.972 229.504C500.981 241.945 490.292 251.497 477.258 256.056C464.445 260.483 450.396 259.62 438.222 253.659C425.801 247.644 416.311 236.898 411.879 223.829C407.538 210.779 408.555 196.539 414.709 184.24C420.791 172.039 431.523 162.797 444.491 158.592C457.499 154.343 471.66 155.423 483.873 161.595C496.795 168.171 506.855 180.321 510.257 194.495C510.823 196.856 511.211 199.587 512 201.852L512 213.148Z"/><path d="M512 408.148C511.5 409.237 510.65 413.625 510.319 415.049C509.53 418.307 508.408 421.475 506.972 424.504C500.981 436.945 490.292 446.497 477.258 451.056C464.445 455.483 450.396 454.62 438.222 448.659C425.801 442.644 416.311 431.898 411.879 418.829C407.538 405.779 408.556 391.539 414.709 379.24C420.791 367.039 431.523 357.797 444.491 353.592C457.499 349.343 471.66 350.423 483.873 356.595C496.795 363.171 506.855 375.32 510.257 389.495C510.823 391.856 511.211 394.587 512 396.852L512 408.148Z"/></svg>