<?xml version="1.0" encoding="utf-8" ?><svg xmlns="http://www.w3.org/2000/svg" xmlns:xlink="http://www.w3.org/1999/xlink" width="468" height="426" viewBox="0 0 468 426"><path fill="white" d="M0 0L468 0L468 426L0 426L0 0Z"/><path fill="#C35547" d="M302.157 129.894C311.301 125.908 350.036 118.697 358.421 121.925C360.363 122.673 362.334 124.159 363.146 126.12C364.684 129.829 363.775 144.633 363.736 149.686C367.379 149.493 371.045 149.581 374.65 149.459C383.143 149.173 391.113 149.58 391.228 160.479C391.352 172.263 391.298 184.21 391.292 196.073L391.257 263.051L391.213 306.232C391.2 313.868 391.477 321.807 390.894 329.409C390.346 336.553 384.729 339.951 378.127 340.025C357.653 340.228 337.178 340.245 316.704 340.075C304.285 339.978 291.154 339.41 278.82 340.322C272.512 340.788 264.5 342.402 258.441 344.28C252.757 346.041 248.018 350.284 241.726 350.43C234.759 350.591 229.388 345.734 223.188 344.124C217.091 342.54 209.068 341.227 202.825 340.517C191.563 339.235 179.238 339.759 167.845 339.883C153.513 340.01 139.18 340.056 124.847 340.021L113.416 340.024C110.038 340.056 104.186 340.377 101.146 339.618C98.8793 339.05 96.8062 337.885 95.1432 336.244C93.2392 334.356 92.0315 331.878 91.7175 329.215C91.2526 325.319 91.5348 314.459 91.5534 310.255L91.6107 274.996L91.614 161.381C91.7348 145.627 104.028 150.379 115.009 149.648C115.879 149.591 117.002 149.679 117.899 149.697L119.22 149.727C119.121 145.31 119.05 140.892 119.007 136.474C118.98 133.755 118.807 130.82 119.274 128.206C120.123 123.458 124.377 120.985 128.954 121.238C137.228 121.298 145.39 122.083 153.524 123.595C166.008 125.818 178.317 128.838 190.163 133.413C192.258 134.222 194.416 135.034 196.107 136.553C200.686 140.538 197.444 147.901 191.619 147.815C190.596 147.789 189.075 147.342 188.115 146.943C186.713 146.821 181.605 144.435 179.939 143.826C169.166 139.894 157.187 137.323 145.901 135.678C141.627 135.58 136.87 134.848 132.251 134.698C132.849 187.281 132.44 240.788 132.326 293.452C162.502 293.924 192.026 302.301 217.952 317.749C224.001 321.276 229.279 325.788 234.989 329.164C235.133 322.181 234.749 315.074 234.739 308.022L234.68 250.351L234.677 231.498C234.676 227.511 234.536 223.568 234.956 219.638C235.554 214.04 243.366 212.561 246.501 216.52C249.272 220.019 248.322 228.308 248.287 232.739L248.295 251.985L247.997 329.027C252.075 326.124 264.308 316.545 268.65 315.346C270.741 314.038 274.447 312.339 276.722 311.376C279.318 309.4 300.313 301.84 304.368 300.619C318.303 296.425 336.285 293.826 350.851 293.456L350.762 176.701C350.733 162.988 351.013 148.283 350.683 134.662C336.975 134.919 329.458 136.217 316.374 139.138C312.917 139.945 309.504 140.93 306.149 142.09C300.582 144.06 293.751 147.942 288.189 147.168C285.616 145.504 284.087 143.149 284.348 139.991C285.357 134.282 297.145 131.374 302.157 129.894Z"/><path fill="#A44135" d="M145.901 135.678C147.521 135.159 154.96 135.375 156.267 136.066C156.317 136.379 156.337 136.437 156.337 136.755C160.788 138.269 165.631 138.674 170.189 139.757C173.317 140.501 185.418 144.423 187.375 146.257C187.665 146.529 187.917 146.551 188.293 146.608C188.433 146.63 188.571 146.654 188.71 146.677L188.115 146.943C186.713 146.821 181.605 144.435 179.939 143.826C169.166 139.894 157.187 137.323 145.901 135.678Z"/><path fill="#7E1B16" d="M284.348 139.991C285.357 134.282 297.145 131.374 302.157 129.894L302.254 130.252C301.273 131.26 291.043 134.37 288.9 135.534C285.869 137.181 285.908 139.031 284.348 139.991Z"/><path fill="#A44135" d="M268.65 315.346C270.741 314.038 274.447 312.339 276.722 311.376C276.042 312.979 270.238 315.529 268.65 315.346Z"/><path fill="white" d="M104.843 162.586C109.365 162.387 114.953 162.539 119.569 162.504C119.348 169.614 119.419 177.107 119.356 184.249L119.231 243.929L119.249 280.002C119.259 286.083 119.216 292.29 119.36 298.364C119.54 300.058 119.541 302.262 120.616 303.63C122.98 306.638 127.291 306.784 130.897 306.719C137.223 306.605 143.105 307.021 149.387 307.866C167.489 310.127 185.067 315.486 201.351 323.708C202.546 324.299 207.273 326.488 207.869 327.448C199.927 327.71 189.23 326.779 180.693 326.759L104.702 327.06C104.874 312.135 104.721 296.95 104.724 281.998L104.795 213.025C104.776 196.832 104.388 178.69 104.843 162.586Z"/><path fill="white" d="M363.71 162.547C368.475 162.585 373.241 162.578 378.006 162.526C378.234 217.358 377.327 272.301 378.144 327.185C348.595 327.492 318.717 326.543 289.034 326.816C283.868 326.957 279.06 327.327 273.945 327.548C278.189 324.533 283.83 322.238 288.565 320.194C304.186 313.383 320.441 309.197 337.393 307.517C343.976 306.865 350.236 306.803 356.813 306.489C360.603 306.308 363.739 303.334 363.881 299.373C364.066 294.233 363.905 288.956 363.856 283.75L363.792 256.749L363.71 162.547Z"/><path fill="#C35547" d="M211.099 117.551C206.464 117.567 201.829 117.609 197.195 117.679C194.183 117.714 190.945 117.895 187.982 117.412C182.914 116.772 180.032 111.574 183.275 107.255C190.094 98.1729 197.376 89.1454 204.206 80.0607C211.935 69.7026 219.815 59.4583 227.844 49.3309C230.621 45.7625 233.25 41.7209 236.197 38.3609C237.467 36.9119 239.44 35.7804 241.397 35.9032C244.459 36.0954 245.51 37.4401 247.376 39.5379C250.803 43.3895 253.731 47.7722 256.845 51.8865L272.994 72.8627C281.935 84.4776 290.583 96.2751 299.798 107.596C303.161 114.333 298.193 117.93 292.041 117.643C285.66 117.347 278.562 118.17 272.468 117.592L272.204 117.565C272.728 133.135 272.504 149.349 272.497 164.977C272.492 174.692 272.964 188.521 272.202 197.959C271.101 201.851 268.311 203.81 264.245 203.344C260.336 201.672 259.257 198.99 259.279 194.987C259.31 189.402 259.461 183.823 259.492 178.235L259.51 144.326L259.335 120.859C259.319 117.19 259.295 113.55 259.389 109.881C259.462 107.051 261.423 104.781 264.279 104.479C269.447 103.933 274.862 104.368 280.117 104.274C276.298 98.5376 272.093 93.5506 267.974 88.0855C263.232 81.7933 258.715 75.4892 253.817 69.2978C252.138 67.2733 250.41 64.8976 248.81 62.7804C246.263 59.7297 243.789 56.47 241.343 53.3261C239.694 55.3335 232.722 65.0619 231.41 66.0509C229.769 68.428 226.478 72.7458 224.579 74.9829C222.827 78.1634 219.862 81.0388 217.812 83.9923C213.036 90.8739 206.596 97.6073 202.034 104.47C204.56 104.544 207.089 104.517 209.613 104.389C213.789 104.217 219.507 103.24 222.711 106.532C223.496 107.339 223.896 108.295 223.943 109.427C223.948 112.589 223.87 115.818 223.88 118.978L223.9 143.504C224.002 155.215 223.996 166.927 223.882 178.638C223.881 181.314 224.355 194.287 223.825 196.164C223.448 201.344 220.432 204.654 215.02 203.162C212.604 201.717 211.371 199.833 211.126 197.029C210.802 193.326 210.944 189.555 210.963 185.831L210.979 168.614C211 151.981 210.656 134.042 211.099 117.551Z"/><path fill="#7E1B16" d="M215.02 203.162C218.089 203.09 221.625 202.142 222.696 198.911C222.993 198.014 223.009 196.402 223.605 195.763L223.825 196.164C223.448 201.344 220.432 204.654 215.02 203.162Z"/><path fill="#A44135" d="M248.81 62.7804L249.313 62.4644C250.303 63.3192 255.406 69.4405 255.483 70.4668C255.021 70.13 254.285 69.5587 253.817 69.2978C252.138 67.2733 250.41 64.8976 248.81 62.7804Z"/><path fill="#A44135" d="M224.579 74.9829C224.495 73.3029 229.772 66.433 231.41 66.0509C229.769 68.428 226.478 72.7458 224.579 74.9829Z"/><path fill="#A44135" d="M272.202 197.959C271.101 201.851 268.311 203.81 264.245 203.344C268.877 203.328 269.772 199.533 272.202 197.959Z"/></svg>