<?xml version="1.0" encoding="utf-8" ?><svg xmlns="http://www.w3.org/2000/svg" xmlns:xlink="http://www.w3.org/1999/xlink" width="392" height="404" viewBox="0 0 392 404"><path fill="white" d="M0 0L392 0L392 404L0 404L0 0Z"/><path fill="#683887" d="M201.085 22.3578C211.002 21.9179 220.928 23.0196 230.507 25.6234C276.247 37.9179 309.174 88.8428 295.129 135.465C286.001 165.765 268.993 197.178 253.68 224.852C243.085 244.08 232.114 263.098 220.774 281.897C218.388 285.861 216.269 289.92 214.012 293.951C212.256 297.086 210.66 300.715 207.462 302.546C202.369 303.797 199.608 302.093 196.968 297.755C168.458 250.899 139.544 203.03 119.134 151.999C112.044 134.921 108.705 120.115 111.436 101.764C116.751 66.0514 142.119 36.7892 176.648 26.2458C184.364 23.8896 192.963 22.8344 201.085 22.3578Z"/><path fill="white" d="M202.294 35.3623C217.273 35.1328 228.93 37.4303 242.402 44.5C271.237 59.6312 289.623 92.7586 284.201 125.319C281.954 138.819 273.513 156.986 267.447 169.761C254.083 197.619 239.507 224.879 223.762 251.463L211.523 272.133C209.354 275.752 207.079 279.173 205.051 282.887C204.816 283.302 204.658 283.491 204.37 283.867L204.025 283.776C202.078 280.134 199.802 276.93 197.566 273.467C195.697 270.527 193.9 267.542 192.174 264.515C185.367 252.839 178.631 241.088 171.836 229.401C169.772 225.85 167.991 221.986 165.992 218.382C159.833 207.49 153.918 196.462 148.251 185.306C146.045 180.859 144.068 175.976 141.93 171.407C137.526 162.224 133.526 152.853 129.943 143.32C128.524 139.541 126.982 135.607 125.912 131.663C114.719 90.3953 144.445 47.01 185.029 37.495C190.701 36.1652 196.361 35.5521 202.294 35.3623Z"/><path fill="#683887" d="M200.803 69.0433C226.973 67.1796 249.704 86.8709 251.59 113.039C253.476 139.207 233.805 161.955 207.639 163.864C181.44 165.775 158.658 146.074 156.77 119.874C154.881 93.6742 174.602 70.9094 200.803 69.0433Z"/><path fill="white" d="M171.109 126.234C165.834 108.75 175.097 90.1838 192.238 83.8838C209.379 77.5838 228.461 85.7322 235.764 102.471C243.067 119.209 236.062 138.739 219.785 147.02C203.508 155.3 183.597 149.463 174.368 133.704L173.638 133.71C172.906 132.986 171.843 131.109 171.545 130.143C170.894 128.04 170.309 128.036 171.109 126.234Z"/><path fill="#5F2D7F" d="M174.368 133.704L173.638 133.71C172.906 132.986 171.843 131.109 171.545 130.143C170.894 128.04 170.309 128.036 171.109 126.234C171.896 128.844 172.99 131.352 174.368 133.704Z"/><path fill="#5F2D7F" d="M210.781 279.897C211.64 281.798 211.577 289.592 210.823 291.905C209.42 290.672 210.028 281.752 210.781 279.897Z"/><path fill="#683887" d="M249.335 262.023C254.625 261.722 263.432 264.901 268.551 266.776C278.943 270.581 292.423 277.557 297.241 288.101C299.591 293.247 300.299 299.136 298.254 304.488C294.81 313.5 285.623 319.488 277.154 323.321C240.766 339.788 175.449 340.132 138.111 325.998C127.755 322.077 115.081 315.858 110.358 305.186C108.23 300.378 108.203 294.526 110.137 289.649C114.507 278.631 125.75 273.058 135.939 268.643C141.425 266.51 146.814 264.992 152.491 263.46C156.783 262.303 162.313 261.486 164.125 266.937C164.653 268.562 164.5 270.332 163.701 271.843C162.745 273.642 160.652 274.749 158.762 275.248C154.652 276.332 150.182 277.387 146.202 278.703C126.74 285.134 108.468 299.231 137.105 311.483C148.384 316.382 155.786 318.046 168.088 320.067C192.242 324.049 216.883 324.081 241.049 320.163C249.523 318.813 257.857 317.273 265.995 314.067C272.479 311.512 282.684 306.812 285.902 300.259C286.633 298.707 286.642 296.358 285.829 294.763C281.096 285.482 269.026 280.836 259.708 277.593C255.982 276.515 252.289 275.944 248.632 274.605C242.869 272.494 243.557 263.997 249.06 262.115L249.335 262.023Z"/></svg>