<?xml version="1.0" encoding="utf-8" ?><svg xmlns="http://www.w3.org/2000/svg" xmlns:xlink="http://www.w3.org/1999/xlink" width="480" height="410" viewBox="0 0 480 410"><path fill="white" d="M0 0L480 0L480 410L0 410L0 0Z"/><path fill="#306289" d="M310.948 37.7515C312.972 37.727 315.746 39.1284 317.452 40.1867C336.23 51.8364 355.202 63.1771 373.807 75.101C376.651 76.9243 377.626 79.1481 377.744 82.4448C378.261 96.8479 377.99 111.363 377.98 125.79L377.986 201.559L378.003 238.277C378.005 243.397 378.323 254.635 377.375 259.206C374.557 262.594 368.433 265.589 364.62 267.911L346.83 278.964L254.764 336.261L220.304 357.609C213.646 361.811 202.66 369.54 195.611 372.224C193.948 372.331 192.66 372.071 191.199 371.272C185.794 368.316 180.625 364.933 175.415 361.649C167.266 356.627 159.171 351.519 151.129 346.327C145.253 342.564 134.992 337.436 130.458 332.521C129.364 331.334 129.375 329.909 129.236 328.359C128.61 321.393 129.127 312.092 129.142 304.865C129.164 293.771 128.817 282.648 129.243 271.56C129.292 270.296 129.367 267.686 130.1 266.638C132.17 263.683 151.46 252.447 155.752 249.738L176.541 236.5C178.889 234.984 183.952 232.033 185.751 230.273C186.185 215.983 185.501 201.296 185.772 187.041C186.007 174.67 184.161 175.345 194.917 168.141C206.492 160.388 218.427 153.233 229.954 145.419C234.865 142.09 240.01 139.054 245.042 135.946C244.856 118.655 245.228 101.099 245.329 83.7889C245.351 80.0519 246.753 77.3647 249.923 75.3628C253.277 73.2448 256.859 71.3948 260.237 69.2546L295.59 47.0157C299.4 44.6273 307.228 38.8754 310.948 37.7515Z"/><path fill="white" d="M364.769 93.0203C365.076 93.0165 364.902 92.9827 365.256 93.235C365.434 100.359 365.155 108.642 365.118 115.908L365.108 156.121L365.144 215.591C365.237 227.69 365.254 239.79 365.194 251.89C361.056 255.381 350.163 261.76 345.154 264.838C336.91 269.906 327.757 276.221 319.505 281.062C320.125 264.198 319.497 246.121 319.498 229.182C319.499 211 319.259 192.736 319.216 174.54C319.176 157.457 317.947 139.43 318.591 122.395C321.786 120.177 325.692 118.068 329.055 115.944L348.017 103.733C352.764 100.731 360.068 95.4725 364.769 93.0203Z"/><path fill="white" d="M305.971 187.254C306.812 188.544 306.845 277.984 307.06 288.718C305.873 289.511 304.567 290.277 303.343 291.017C292.928 297.318 282.768 304.045 272.272 310.209C268.307 312.537 264.619 315.565 260.587 317.708L260.105 317.816C259.549 317.011 259.939 310.467 259.941 308.878L260.026 265.772C259.999 250.247 259.539 233.199 260.069 217.811C263.457 214.54 275.019 208.402 279.476 205.367C285.051 201.572 290.763 197.637 296.404 193.932C298.874 192.309 304.112 189.229 305.971 187.254Z"/><path fill="white" d="M250.928 146.943C253.195 146.855 264.612 155.233 267.501 157.021C275.649 162.063 283.845 167.313 291.921 172.492C294.227 173.971 296.702 175.699 299.169 176.838C291.251 182.625 281.025 188.642 272.694 194.055C266.449 198.113 259.933 202.702 253.73 206.561C252.209 206.799 248.031 203.639 246.587 202.682C243.264 200.454 239.918 198.259 236.551 196.097C226.568 189.694 215.313 183.052 205.784 176.36C210.205 174.223 217.189 169.533 221.462 166.78C231.453 160.422 241.278 153.807 250.928 146.943Z"/><path fill="white" d="M311.338 51.9805C312.077 52.2369 317.179 55.5653 318.202 56.1488C332.021 64.0318 344.941 73.19 358.658 81.2902C343.703 91.2343 326.788 101.359 312.286 111.542C312.664 111.536 267.285 83.0779 264.983 81.512C273.711 75.1985 283.965 69.8419 293.015 63.7813C299.122 59.6922 305.267 56.33 311.338 51.9805Z"/><path fill="white" d="M192.577 241.483C192.808 241.454 192.88 241.428 193.097 241.453C193.517 241.5 233.218 266.499 236.943 269.101C238.03 269.86 238.906 270.714 239.794 271.694C237.738 273.575 231.103 276.958 228.223 278.774L208.789 291.057C204.571 293.76 199.823 297.187 195.303 299.183C191.667 298.513 184.102 293.194 180.642 291.035L164.877 281.279C161.738 279.325 158.586 277.394 155.42 275.485C152.856 273.96 150.024 272.444 147.649 270.687C150.51 267.873 155.083 265.279 158.587 263.057L174.134 253.251C180.176 249.424 186.437 244.782 192.577 241.483Z"/><path fill="white" d="M258.513 93.0278C261.088 93.7979 302.367 120.319 305.335 122.927C306.215 124.835 306.173 160.814 306.074 165.414C302.076 163.556 295.16 158.684 291.22 156.314C280.588 149.919 269.164 142.071 258.308 136.193C257.949 122.562 258.223 106.658 258.513 93.0278Z"/><path fill="white" d="M198.582 187.35C199.254 187.644 204.366 190.878 205.183 191.379C212.559 195.934 219.854 200.619 227.064 205.431C233.087 209.383 241.131 214.016 246.726 218.191C247.217 231.614 246.683 246.265 246.789 259.875C245.767 259.897 239.005 254.992 237.733 254.189L210.934 237.229C207.716 235.203 201.979 231.119 198.566 230.019C198.428 215.796 198.434 201.572 198.582 187.35Z"/><path fill="white" d="M142.023 282.875C144.826 284.038 147.923 286.365 150.615 287.92C163.389 295.303 175.764 303.555 188.471 310.997C188.931 325.123 188.404 340.203 188.658 354.502C187.608 354.252 177.111 347.432 175.68 346.533L141.899 325.387C142.213 321.289 141.977 313.773 141.954 309.567C141.863 300.67 141.886 291.772 142.023 282.875Z"/><path fill="white" d="M246.255 282.973L246.535 283.222C246.814 284.556 246.763 288.196 246.775 289.757L246.809 303.209C246.83 308.802 247.346 321.08 246.729 325.798C243.089 328.498 237.482 331.612 233.501 334.138L201.678 354.198L201.492 354.166C201.203 353.76 201.306 315.35 201.353 311.029C216.39 301.848 230.868 291.939 246.255 282.973Z"/></svg>