<?xml version="1.0" encoding="utf-8" ?><svg xmlns="http://www.w3.org/2000/svg" xmlns:xlink="http://www.w3.org/1999/xlink" width="430" height="388" viewBox="0 0 430 388"><path fill="white" d="M0 0L430 0L430 388L0 388L0 0Z"/><path fill="#548D54" d="M134.756 110.074C134.85 106.118 134.11 98.5741 135.832 95.3871C137.708 91.9146 147.321 86.9475 150.735 84.8847L172.965 71.2864C189.849 60.5978 206.875 50.1338 224.037 39.8972C230.043 36.2948 236.408 31.8897 242.869 29.1822C244.74 28.3981 247.2 29.6111 248.908 30.5222C254.402 33.4515 259.714 36.7829 265.1 39.9246L301.245 61.3508L337.465 83.0594C342.68 86.1867 348.129 89.0516 353.197 92.4067C354.894 93.5303 358.82 95.9155 359.408 97.7916C359.855 99.2163 360.059 100.787 360.151 102.273C360.619 109.861 360.207 117.735 360.223 125.352C360.242 134.74 360.66 144.4 360.016 153.76C359.924 155.095 359.777 157.475 359.062 158.623C356.714 162.397 328.483 178.298 322.379 182.029C318.762 184.239 315.337 186.873 311.599 188.865C309.994 189.721 308.592 190.213 306.806 190.56C302.194 189.061 292.284 182.758 287.573 179.899C282.394 176.756 277.797 174.155 272.461 171.173C272.614 177.721 272.712 184.27 272.757 190.82C281.038 195.314 290.097 201.077 298.166 206.017C300.417 207.395 304.075 209.46 306.07 210.886C307.651 211.706 310.192 213.258 311.611 214.373C312.417 214.852 313.194 215.616 313.904 216.252C314.604 220.66 314.477 226.212 314.494 230.737L314.515 252.34C314.525 260.325 314.963 270.529 314.137 278.335C313.805 281.466 297.109 291.403 293.729 293.541L271.385 307.909L232.612 332.983C227.415 336.318 222.276 339.805 217.094 343.099C215.575 344.065 212.531 345.701 210.867 344.983C206.739 343.203 201.798 339.775 197.885 337.434C186.398 330.64 174.954 323.775 163.552 316.84L115.626 288.443C106.9 283.33 98.0324 278.386 89.4335 273.077C87.8219 271.972 85.4333 270.666 84.5764 268.85C83.3652 266.284 83.7206 262.641 86.0991 260.887C89.5403 258.349 93.2936 256.494 96.8616 254.199L115.884 242.214C118.988 240.27 124.547 236.594 127.64 235.125C124.499 233.391 121.292 231.133 118.161 229.361C112.24 225.878 105.938 222.424 100.237 218.598C95.7791 215.607 86.8687 211.615 83.8276 207.482C83.3269 203.81 83.4822 197.844 83.4813 193.982C83.435 185.883 83.5006 177.785 83.6781 169.688C83.7937 162.355 83.5267 154.957 83.6591 147.625C83.7645 146.235 83.8673 144.359 84.8593 143.274C87.9399 139.904 92.4753 137.224 96.2919 134.792C102.21 131.02 108.024 127.246 113.993 123.6C118.921 120.589 123.859 117.738 128.621 114.46C130.472 113.187 132.936 111.74 134.558 110.258L134.756 110.074Z"/><path fill="#3A6F3B" d="M311.611 214.373C311.254 214.724 311.139 214.992 310.761 214.922C309.248 214.64 307.711 213.225 306.724 212.229L307.386 212.675C307.092 211.994 306.84 211.886 306.226 211.402L306.01 211.234L306.07 210.886C307.651 211.706 310.192 213.258 311.611 214.373Z"/><path fill="white" d="M96.4547 158.069C100.997 161.373 106.632 164.671 111.448 167.633L136.361 182.867L165.678 200.646C171.32 204.114 183.741 212.704 189.697 214.143C194.262 213.012 204.436 205.381 209.313 202.341L247.048 178.526C251.312 175.81 255.587 173.314 259.819 170.522C259.215 179.818 259.662 189.671 259.539 198.996C259.485 203.021 259.775 207.087 259.521 211.109C259.478 211.783 258.554 212.176 258.029 212.508C242.61 222.148 227.309 231.975 212.129 241.989C207.023 245.293 201.818 248.42 196.79 251.863C194.072 253.724 191.317 255.391 188.819 257.569C187.18 256.246 183.532 254.213 181.637 252.921C175.069 248.443 168.216 244.476 161.463 240.301C139.895 227.073 118.236 213.992 96.4893 201.059L96.4955 175.83C96.4744 169.817 96.2815 164.093 96.4547 158.069Z"/><path fill="white" d="M243.904 42.6286C245.92 43.6161 249.236 45.8093 251.262 47.0712C254.636 49.1668 258.04 51.2136 261.474 53.2109C278.082 63.0042 294.66 73.2095 311.342 82.7867C311.193 82.4277 311.038 82.0889 310.831 81.7597L311.116 81.6307C312.776 82.3891 318.698 85.3648 318.921 87.1769C319.423 87.7597 338.436 98.985 340.87 100.529C329.316 107.966 317.705 115.313 306.037 122.569C292.022 113.191 275.984 104.733 261.333 96.1579C256.315 93.5757 249.798 88.5956 244.51 87.149C241.788 86.4043 231.117 93.9635 228.296 95.598C215.026 103.171 201.939 111.059 189.046 119.257C177.195 111.607 166.723 105.013 154.529 97.9039C156.458 96.5677 158.528 95.2601 160.566 94.1017C179.401 83.3989 197.444 71.4579 215.974 60.2449C225.128 54.7055 235.408 48.9754 243.904 42.6286Z"/><path fill="#3A6F3B" d="M311.342 82.7867C311.193 82.4277 311.038 82.0889 310.831 81.7597L311.116 81.6307C312.776 82.3891 318.698 85.3648 318.921 87.1769C316.593 85.9884 313.764 84.1353 311.342 82.7867Z"/><path fill="white" d="M139.184 243.215C142.025 243.765 157.451 253.702 161.328 256.029C169.97 261.518 179.129 266.526 187.738 272.013C193.439 275.646 199.889 279.734 205.449 283.554C205.526 285.596 205.539 287.877 205.503 289.918C205.288 302.073 206.361 314.957 205.577 327.055C198.835 323.403 191.095 317.888 183.883 313.834C179.8 311.45 176.127 308.609 172.15 306.181C149.702 292.473 125.536 279.788 103.522 265.513C108.71 262.013 113.927 258.707 119.29 255.485C125.634 251.673 132.594 246.392 139.184 243.215Z"/><path fill="white" d="M301.05 232.011L301.252 232.06C301.669 232.621 301.539 269.29 301.543 272.808C295.45 277.488 288.798 280.77 282.59 285.026C276.397 289.125 270.088 293.699 263.756 297.542C248.7 306.679 234.386 316.856 219.225 325.811L218.888 325.698C218.37 324.314 219.229 288.61 219.254 283.918C226.307 279.114 234.875 273.938 242.156 269.43L266.365 254.145C271.789 250.661 277.237 247.086 282.673 243.614C288.275 240.035 295.197 234.908 301.05 232.011Z"/><path fill="white" d="M102.132 146.73C106.785 144.048 111.66 140.806 116.248 137.955C122.463 134.092 128.573 130.235 134.542 125.999C134.22 129.65 133.821 148.141 135.053 150.544C135.673 151.75 137.666 153.027 138.772 153.783C142.48 156.32 146.54 158.377 150.347 160.773C158.586 165.957 166.825 171.006 175.21 175.957C179.059 178.23 183.217 181.176 187.453 182.622C188.773 183.072 190.092 183.22 191.436 182.748C195.737 181.235 204.66 175.114 208.778 172.512C213.481 169.539 218.405 166.942 223.153 164.04C229.479 160.174 235.785 155.832 242.449 152.6C246.538 155.134 249.899 157.174 254.178 159.374C253.305 159.697 253 159.835 252.195 160.302L252.467 160.871C251.607 161.871 249.497 162.802 248.284 163.323L247.854 163.236L247.785 162.925C235.326 170.386 223.43 178.267 211.187 185.983C203.252 190.984 197.674 193.981 189.793 199.746C188.218 198.436 185.48 196.84 183.703 195.672C178.206 192.057 172.285 189.049 166.686 185.682L121.454 158.509C114.908 154.535 108.545 150.973 102.132 146.73Z"/><path fill="#3A6F3B" d="M247.785 162.925C249.196 161.99 250.641 160.95 252.195 160.302L252.467 160.871C251.607 161.871 249.497 162.802 248.284 163.323L247.854 163.236L247.785 162.925Z"/><path fill="white" d="M250.772 105.17C252.1 105.721 255.559 107.851 256.974 108.686L269.965 116.427L289.584 128.011C292.476 129.723 297.888 132.724 300.285 134.693C299.854 146.609 300.102 159.574 299.998 171.636C299.219 171.645 255.443 145.053 251.207 142.564C250.831 139.488 250.874 133.607 250.829 130.419C250.745 122.003 250.726 113.586 250.772 105.17Z"/><path fill="white" d="M237.705 104.977C237.787 105.103 237.617 136.717 237.665 139.804C235.03 141.903 226.304 146.691 222.787 148.739C214.093 153.802 204.262 160.637 195.541 165.256C195.291 164.719 195.359 133.747 195.352 130.669C208.978 122.233 223.833 112.812 237.705 104.977Z"/><path fill="white" d="M347.272 112.065C347.676 112.603 347.313 148.266 347.297 151.963C338.615 157.02 330.174 162.472 321.444 167.444C319.85 168.352 314.036 172.45 312.865 172.387C313.021 168.573 312.736 164.047 312.791 160.101C312.91 151.487 312.978 142.854 312.488 134.25C320.97 128.402 329.754 123.289 338.355 117.664C341.343 115.71 344.161 113.833 347.272 112.065Z"/><path fill="white" d="M272.7 206.832C278.026 209.145 290.472 216.482 295.424 219.832C293.203 221.425 290.204 223.046 287.812 224.6L267.828 237.465L218.862 268.621L212.569 272.814C208.67 270.017 204.623 267.431 200.446 265.067C207.418 260.108 217.009 254.226 224.341 249.611L257.202 228.761C261.558 225.976 267.604 222.972 271.484 219.72C273.248 218.241 272.727 209.547 272.7 206.832Z"/><path fill="white" d="M147.656 109.494C150.976 110.992 159.826 116.602 163.18 118.72C168.022 121.776 178.392 127.325 182.223 130.718C182.015 142.16 182.432 153.62 182.157 165.055C179.297 163.321 176.209 160.867 173.31 159.071C168.683 156.204 163.947 153.487 159.268 150.699C155.422 148.408 151.374 145.467 147.467 143.386C147.524 132.933 147.047 119.646 147.656 109.494Z"/><path fill="#3A6F3B" d="M216.224 109.083C217.409 109.34 217.031 109.116 217.842 109.838C217.891 110.705 217.97 110.36 217.378 111.155C216.632 111.011 215.961 110.977 215.424 110.46C215.496 109.635 215.525 109.853 216.224 109.083Z"/><path fill="#3A6F3B" d="M110.768 215.716C111.976 216.074 112.62 216.805 113.272 217.867C112.188 217.808 111.194 216.646 110.768 215.716Z"/></svg>