<?xml version="1.0" encoding="utf-8" ?><svg xmlns="http://www.w3.org/2000/svg" xmlns:xlink="http://www.w3.org/1999/xlink" width="432" height="374" viewBox="0 0 432 374"><path fill="white" d="M0 0L432 0L432 374L0 374L0 0Z"/><path fill="#653884" d="M274.98 73.2033C254.193 62.729 256.183 37.49 276.932 29.7008C281.584 27.9544 287.699 27.519 292.499 26.1599C308.424 21.6506 323.941 21.002 330.391 39.7298C333.31 48.2046 330.526 54.2212 325.89 61.8053C328.746 61.4678 333.389 60.4997 335.551 62.5912C340.634 67.5077 345.637 73.8649 350.249 79.2389C356.595 86.5445 362.87 93.9123 369.071 101.341C370.707 103.285 379.645 113.111 379.616 115.287C379.541 120.958 376.323 128.486 374.744 133.98C373.029 139.69 371.245 145.146 369.415 150.672L365.747 161.642C365.09 163.668 364.204 166.803 363.447 168.704C370.032 168.732 377.445 169.527 382.064 174.621C391.977 185.556 388.513 203.456 373.892 208.137C369.599 209.511 365.841 210.17 361.578 211.057L346.272 214.351L276.971 229.606L255.572 234.405C252.061 235.205 246.649 236.291 243.382 237.446C250.217 249.918 257.204 262.306 264.342 274.606C267.949 280.694 271.488 286.766 274.889 292.969C276.902 296.64 279.283 300.113 280.837 304.025C282.422 307.484 282.271 311.885 278.617 313.996C277.855 314.436 275.54 314.615 274.649 314.611C270.091 314.59 265.534 314.518 260.975 314.507L230.103 314.462L203.483 314.469C198.85 314.471 194.217 314.522 189.571 314.425C186.5 314.361 183.074 313.933 181.803 310.635C179.926 305.764 184.714 299.665 187.225 295.459L195.331 281.874L211.954 254.075C214.232 250.228 216.42 246.07 218.713 242.298L139.149 259.386L112.664 265.319C103.954 267.203 95.8527 270.296 87.6602 265.302C77.9193 259.364 74.7436 246.554 81.0484 236.913C86.8066 228.336 101.601 226.538 111.126 224.705C111.618 224.612 112.111 224.53 112.607 224.462C109.844 221.924 102.659 212.618 99.8496 209.257C95.1049 203.642 90.4031 197.991 85.7446 192.304C82.5037 188.409 77.7952 183.887 76.3187 179.06C78.5633 169.143 83.8421 155.262 87.1281 145.483C89.4951 138.293 91.9499 131.131 94.4919 124.001C95.6772 120.726 96.8086 117.477 98.2489 114.304C99.8174 110.85 103.797 110.122 107.139 109.086C99.9741 103.61 95.6238 99.8498 94.0097 90.1197C93.0557 84.369 95.6779 77.5406 99.1187 72.9603C105.417 64.8529 117.131 63.5572 126.467 61.4475C130.452 60.547 134.977 59.3299 138.834 58.902C151.167 57.5338 163.266 66.6926 164.299 79.2805C164.834 85.8046 162.687 92.6203 158.679 97.5577C158.586 97.672 158.491 97.7843 158.394 97.8946C161.607 97.4498 168.589 95.9844 171.021 98.1171C175.131 101.722 179.491 107.46 183.008 111.7L202.106 134.644C204.691 137.759 213.738 146.844 213.65 150.397C213.413 160.007 208.481 170.573 205.806 179.813C203.281 188.592 200.165 196.942 198.283 205.47C201.327 204.919 204.383 204.109 207.254 203.595C209.739 202.817 219.018 200.781 221.352 200.444L221.513 200.393C222.562 200.071 223.917 199.774 225.007 199.582C230.812 198.556 236.82 196.777 242.624 195.941C247.717 194.4 255.86 192.871 261.232 191.587C265.356 190.601 273.937 188.473 277.701 188.029C275.019 185.586 271.305 181.022 268.881 178.156C264.177 172.631 259.537 167.052 254.962 161.419C251.414 157.068 243.89 149.287 241.781 144.585C242.159 140.229 244.877 132.707 246.313 128.223L255.916 98.8415C257.791 93.0568 259.372 87.2185 261.167 81.4059C262.859 75.9295 269.84 74.2586 274.98 73.2033Z"/><path fill="#492063" d="M221.513 200.393C222.562 200.071 223.917 199.774 225.007 199.582C230.812 198.556 236.82 196.777 242.624 195.941C241.328 197.397 223.426 200.682 221.513 200.393Z"/><path fill="#492063" d="M207.254 203.595C209.739 202.817 219.018 200.781 221.352 200.444C220.521 201.501 208.633 204.387 207.254 203.595Z"/><path fill="white" d="M340.8 187.385C346.161 186.445 351.594 185.063 356.93 183.922C360.891 183.075 365.388 181.889 369.457 181.775C374.838 185.16 377.681 191.552 370.553 195.696C368.53 196.872 360.885 198.036 358.106 198.625L336.315 203.282L258.907 220.342C245.833 223.164 232.774 225.74 219.803 229.044C218.688 229.328 217.305 229.522 216.25 229.857C214.322 231.44 211.84 231.876 209.403 232.048C207.185 232.204 203.766 233.309 201.727 232.833C200.874 232.942 198.269 233.308 197.537 233.666L197.531 234.058C194.768 235.456 171.946 240.15 168.748 239.831L148.34 244.253C146.336 244.671 138.811 246.098 137.269 246.672L137.262 247.095C134.709 247.761 122.012 251.352 120.543 250.341C115.485 251.191 98.5476 256.256 94.6449 254.219C93.0257 253.374 91.6557 251.292 91.1961 249.55C90.7492 247.856 90.9445 246.151 91.8397 244.635C93.0147 242.646 95.1064 241.39 97.2332 240.633C100.596 239.436 104.581 238.935 108.078 238.138C117.611 235.97 127.164 233.892 136.736 231.904C145.124 230.157 153.212 228.166 161.527 226.344L201.431 217.726L222.708 213.233C226.069 212.524 230.186 211.772 233.454 210.888L233.091 210.561C234.465 209.799 236.109 210.221 237.377 209.294C239.556 207.704 251.071 205.762 253.011 206.659C254.958 206.358 258.316 205.485 260.342 205.014C265.278 203.844 270.226 202.719 275.183 201.639C282.741 200.039 290.356 198.66 297.864 196.83C300.776 196.12 304.782 195.459 307.556 194.569L307.789 194.141C312.524 192.539 318.47 191.584 323.431 190.622C326.684 189.991 338.693 186.764 340.8 187.385Z"/><path fill="#492063" d="M168.748 239.831C173.186 238.501 180.086 237.442 184.737 236.416C188.74 235.532 193.575 234.341 197.537 233.666L197.531 234.058C194.768 235.456 171.946 240.15 168.748 239.831Z"/><path fill="#492063" d="M233.454 210.888L233.091 210.561C234.465 209.799 236.109 210.221 237.377 209.294C239.556 207.704 251.071 205.762 253.011 206.659C247.99 207.902 238.446 210.203 233.454 210.888Z"/><path fill="#492063" d="M307.556 194.569L307.789 194.141C312.524 192.539 318.47 191.584 323.431 190.622C326.684 189.991 338.693 186.764 340.8 187.385L316.602 192.677C315.084 192.998 308.6 194.503 307.556 194.569Z"/><path fill="#492063" d="M120.543 250.341C124.971 249.266 132.918 247.335 137.269 246.672L137.262 247.095C134.709 247.761 122.012 251.352 120.543 250.341Z"/><path fill="#492063" d="M201.727 232.833C203.948 232.097 213.309 230.495 216.25 229.857C214.322 231.44 211.84 231.876 209.403 232.048C207.185 232.204 203.766 233.309 201.727 232.833Z"/><path fill="white" d="M94.8786 182.867L123.492 176.932C130.171 175.504 137.304 173.667 144.026 172.63C147.904 176.852 151.686 181.71 155.55 185.97C156.804 187.353 159.248 190.457 160.52 191.537C162.17 191.696 163.634 193.866 164.412 195.265C164.358 195.616 164.396 195.647 164.24 195.945C166.918 199.666 172.948 206.844 176.172 210.122C172.331 210.473 166.883 211.956 162.95 212.74C161.167 213.095 156.106 214.124 154.586 214.631L154.914 214.875C152.72 216.067 134.501 220.026 130.842 220.568C130.139 220.672 129.153 220.506 128.441 220.328C127.826 220.389 126.884 220.621 126.25 220.754L108.048 198.877C103.669 193.71 98.786 188.32 94.8786 182.867Z"/><path fill="#492063" d="M128.441 220.328C136.719 218.597 146.505 216.053 154.586 214.631L154.914 214.875C152.72 216.067 134.501 220.026 130.842 220.568C130.139 220.672 129.153 220.506 128.441 220.328Z"/><path fill="#492063" d="M160.52 191.537C162.17 191.696 163.634 193.866 164.412 195.265C164.358 195.616 164.396 195.647 164.24 195.945C162.961 194.554 161.725 193.001 160.52 191.537Z"/><path fill="white" d="M314.696 135.37C319.214 134.814 325.144 133.148 329.697 132.301C340.939 130.208 353.039 127.066 364.241 125.357C360.21 136.48 356.704 147.766 352.673 158.891C351.067 163.322 349.788 167.866 348.172 172.309C346.89 172.842 344.39 173.498 343 173.874L343.07 174.344C335.723 176.552 327.419 178.231 319.844 179.492C317.882 179.819 310.952 181.905 309.406 181.355C308.136 181.43 300.663 183.177 299.047 183.531C301.918 175.613 304.578 166.769 307.377 158.711C309.091 153.775 314.055 140.106 314.696 135.37Z"/><path fill="#492063" d="M309.406 181.355C316.066 179.796 322.736 178.283 329.416 176.815C333.6 175.863 338.885 174.493 343 173.874L343.07 174.344C335.723 176.552 327.419 178.231 319.844 179.492C317.882 179.819 310.952 181.905 309.406 181.355Z"/><path fill="white" d="M157.737 111.828L157.86 112.05C157.421 113.95 155.635 118.244 154.91 120.382L148.164 140.552C146.952 144.062 145.793 147.589 144.688 151.134C143.874 153.742 142.85 157.424 141.742 159.769C136.16 162.24 120.338 164.541 114.123 165.774C107.634 167.062 99.6751 169.155 93.3344 170.202L93.0933 169.958C95.2598 161.825 98.8271 152.117 101.384 143.89C103.039 138.564 106.495 127.124 108.686 122.614C118.389 120.332 128.32 118.674 138.007 116.282C144.567 114.662 151.127 113.225 157.737 111.828Z"/><path fill="white" d="M328.143 75.3042C329.404 75.1066 329.65 74.9927 330.476 75.9761C331.851 77.613 332.979 79.4164 334.381 81.0314L361.767 112.96C346.599 115.686 329.853 119.403 314.706 122.671C314.109 122.806 313.219 123.101 312.612 123.009C311.676 122.868 284.01 90.0195 280.569 85.917C282.545 85.3503 284.496 84.9548 286.504 84.5409C300.44 81.6695 314.213 78.2065 328.143 75.3042Z"/><path fill="white" d="M270.834 94.1394C271.133 94.381 273.516 97.4077 273.924 97.9144C276.597 101.25 279.292 104.568 282.009 107.868C286.131 112.773 290.31 117.63 294.545 122.439C296.527 124.699 301.06 129.664 302.489 132.087C301.353 137.525 297.84 145.915 295.992 151.304C292.998 160.036 290.217 169.568 287.002 178.163C286.863 178.586 286.84 178.555 286.486 178.84C286.516 178.853 257.367 144.088 256.258 142.449C256.504 136.965 263.122 118.247 265.098 112.487C267.12 106.406 269.032 100.289 270.834 94.1394Z"/><path fill="white" d="M169.821 116.438C171.394 117.876 175.015 122.842 176.706 124.814L191.351 142.086C193.725 144.841 198.806 150.373 200.611 153.183C197.375 165.074 192.688 176.86 189.315 188.749C188.298 192.336 187.165 197.13 185.587 200.39C183.105 198.28 179.193 193.345 176.98 190.711C169.699 182.047 161.13 173.053 154.569 163.886C155.267 160.443 157.731 153.662 158.895 150.03L169.821 116.438Z"/><path fill="white" d="M231.899 244.883C232.802 245.546 237.848 255.348 239.03 257.435C243.792 265.845 248.642 274.074 253.633 282.354C257.322 288.474 260.752 295.663 264.817 301.488L231.438 301.529C220.544 301.558 209.651 301.524 198.758 301.43C201.633 295.714 206.905 288.028 210.332 282.313C217.813 270.007 225.004 257.527 231.899 244.883Z"/><path fill="white" d="M306.893 36.0685C312.002 35.907 316.716 38.344 317.841 43.6188C319.138 49.6981 314.794 51.6209 312.667 56.4695C311.574 58.9624 311.704 63.4101 311.73 66.1375C305.064 66.8444 294.172 70.4906 288.048 70.9518C287.523 70.4336 287.68 70.3683 287.541 69.4415C287.456 68.9564 287.359 68.4734 287.25 67.993C286.001 62.5563 282.74 62.2243 278.445 59.7434C275.054 57.6529 273.716 54.0739 273.929 50.2814C273.921 46.7081 276.507 43.4346 280.001 42.2986C288.33 39.5902 298.277 37.7011 306.893 36.0685Z"/><path fill="white" d="M139.168 72.0843C139.472 72.049 139.777 72.0222 140.083 72.0039C149.948 71.3712 153.984 81.355 147.829 88.503C144.278 92.6268 144.375 96.4336 144.617 101.548C141.531 101.856 122.005 106.812 121.152 106.492L120.786 105.451C118.615 97.7581 117.446 98.5411 111.031 95.1157C107.062 92.9965 105.648 85.8538 108.614 82.0678C112.689 76.8679 118.62 76.4174 124.646 75.0028C129.375 73.9619 134.368 72.8509 139.168 72.0843Z"/></svg>