<?xml version="1.0" encoding="utf-8" ?><svg xmlns="http://www.w3.org/2000/svg" xmlns:xlink="http://www.w3.org/1999/xlink" width="806" height="752" viewBox="0 0 806 752"><path fill="white" d="M0 0L806 0L806 752L0 752L0 0Z"/><path fill="#438AEB" d="M367.704 151.849C361.703 149.855 357.351 148.228 352.994 143.314C346.076 135.511 347.208 125.357 347.253 115.649C347.306 104.595 347.051 93.3935 347.342 82.3425C347.811 70.147 357.594 60.1812 369.778 59.5929C375.332 59.3312 380.85 59.4473 386.406 59.4543L417.763 59.506L447.07 59.4757C453.465 59.4679 460.523 59.2847 466.823 59.8531C473.864 60.4987 480.777 62.1382 487.357 64.7227C506.432 72.1911 521.77 86.9137 530.011 105.666C533.36 113.313 535.223 121.38 536.153 129.632C537.02 137.322 536.574 144.767 529.313 149.338C526.682 150.994 524.492 151.524 521.4 151.525C511.655 151.681 501.894 151.602 492.142 151.591L439.778 151.572L405.143 151.588C400.418 151.589 391.08 151.846 386.753 151.426L386.235 152.202C395.175 152.762 405.114 156.276 413.008 160.348C437.783 173.126 454.287 200.093 453.77 228.033C453.643 234.9 448.412 241.475 441.439 242.332C437.554 242.782 433.43 242.64 429.506 242.639L409.227 242.63L335.273 242.627L261.005 242.638C256.003 242.503 250.553 242.621 245.516 242.639C234.001 242.199 221.95 242.993 210.52 242.659C199.673 242.343 189.593 244.544 180.37 237.623C174.862 233.488 174.308 229.655 171.44 224.12L171.281 223.818C170.978 218.649 171.237 210.805 171.236 205.434L171.264 170.395C171.2 146.046 169.182 128.156 187.617 108.283C198.466 96.5886 213.408 90.0802 229.389 89.3906C233.756 89.2021 238.157 90.4402 241.322 93.6761C243.21 95.5971 244.501 98.0228 245.042 100.661C245.843 104.704 245.544 115.065 245.534 119.538L245.525 151.54C250.687 151.643 255.849 151.644 261.011 151.541L335.287 151.567C344.259 151.593 359.198 151.155 367.704 151.849Z"/><path fill="#29323B" d="M171.264 170.395C171.2 146.046 169.182 128.156 187.617 108.283C198.466 96.5886 213.408 90.0802 229.389 89.3906C233.756 89.2021 238.157 90.4402 241.322 93.6761C243.21 95.5971 244.501 98.0228 245.042 100.661C245.843 104.704 245.544 115.065 245.534 119.538L245.525 151.54C234.181 151.608 222.836 151.612 211.492 151.552C199.585 151.534 187.209 149.798 178.097 158.748C174.012 162.76 173.819 166.45 171.264 170.395Z"/><path fill="#68A3F4" d="M386.235 152.202C384.002 152.074 381.783 152.065 379.649 151.421C381.635 151.174 384.851 150.814 386.753 151.426L386.235 152.202Z"/><path fill="#438AEB" d="M335.27 352.888L305.491 352.922C299.301 352.929 288.339 353.386 282.775 352.039C278.648 351.068 274.862 348.996 271.821 346.042C266.827 341.15 264.448 334.283 264.492 327.309C264.573 314.299 264.604 301.238 264.491 288.229C264.424 280.422 265.826 273.428 271.524 267.736C274.701 264.606 278.681 262.414 283.025 261.403C288.396 260.113 298.334 260.581 304.27 260.58L335.287 260.57L510.067 260.623L556.309 260.597C567.84 260.593 582.35 260.006 593.285 262.201C608.148 265.197 621.783 272.547 632.456 283.315C646.695 297.589 654.541 316.194 654.948 336.493C655.04 341.077 653.844 345.291 650.407 348.531C647.98 350.841 644.864 352.293 641.534 352.665C634.859 353.358 617.274 352.905 609.762 352.901L546.556 352.874L335.27 352.888Z"/><path fill="#29323B" d="M171.281 223.818L171.44 224.12C174.308 229.655 174.862 233.488 180.37 237.623C189.593 244.544 199.673 242.343 210.52 242.659C221.95 242.993 234.001 242.199 245.516 242.639L245.503 531.159L245.506 608.021C245.514 618.499 246.124 640.714 244.783 650.01C243.045 662.251 237.516 673.64 228.972 682.578C218.104 694.01 203.459 700.637 187.596 701.28C183.083 701.464 178.602 700.313 175.328 697.006C173.053 694.719 171.655 691.704 171.378 688.49C171.028 684.158 171.254 676.421 171.255 671.799L171.263 639.92L171.262 540.372L171.281 223.818Z"/><path fill="#E4786D" d="M370.233 367.313C378.819 366.909 389.428 367.385 398.198 367.243C403.427 367.158 414.653 366.952 419.311 367.439C421.572 367.664 423.787 368.23 425.879 369.118C434.171 372.566 440.349 380.614 440.501 389.735C440.719 402.806 440.613 415.912 440.613 428.988L440.601 502.932L440.61 593.35C440.611 608.803 440.632 624.307 440.57 639.759C440.334 642.622 440.431 646.94 439.34 649.544C435.263 659.279 428.378 663.987 418.051 665.352L386.49 665.42C380.816 665.423 370.477 665.787 365.284 664.569C361.83 663.726 358.617 662.095 355.898 659.804C345.311 651.012 347.204 639.167 347.228 626.75L347.253 600.746L347.246 513.046L347.242 429.113L347.24 403.188C347.24 399.339 347.073 392.58 347.41 388.978C347.855 384.095 349.777 379.464 352.919 375.7C357.521 370.238 363.271 367.865 370.233 367.313Z"/><path fill="#E4786D" d="M585.556 374.412C594.789 374.21 604.572 374.452 613.864 374.345C619.149 374.285 630.736 374.056 635.315 374.913C639.333 375.66 643.115 377.352 646.351 379.848C656.014 387.433 654.924 398.406 654.927 409.276L654.931 433.491L654.933 512.524L654.922 600.159L654.93 626.884C654.927 640.27 656.969 653.116 644.145 661.438C639.988 664.135 636.624 664.948 631.754 665.39L599.993 665.434C595.495 665.439 587.416 665.664 583.205 665.162C580.364 664.83 577.595 664.04 575.008 662.821C569.322 660.15 564.968 655.281 562.947 649.333C562.173 647.121 561.742 644.803 561.669 642.46C561.202 630.716 561.625 615.73 561.625 603.804L561.623 527.579L561.626 442.826C561.626 428.395 561.642 413.939 561.668 399.509C561.695 384.66 570.959 375.353 585.556 374.412Z"/><path fill="#29323B" d="M261.005 242.638L335.273 242.627L335.287 260.57L304.27 260.58C298.334 260.581 288.396 260.113 283.025 261.403C278.681 262.414 274.701 264.606 271.524 267.736C265.826 273.428 264.424 280.422 264.491 288.229C264.604 301.238 264.573 314.299 264.492 327.309C264.448 334.283 266.827 341.15 271.821 346.042C274.862 348.996 278.648 351.068 282.775 352.039C288.339 353.386 299.301 352.929 305.491 352.922L335.27 352.888L335.26 536.567L335.282 586.59C335.284 593.874 335.667 608.284 334.59 614.834C332.645 626.367 327.455 637.107 319.627 645.797C308.823 657.582 293.796 664.617 277.824 665.366C270.685 665.642 262.868 662.315 261.72 654.718C260.721 648.1 261.027 641.196 261.027 634.515L261.026 606.739L261.028 519.332L261.005 242.638Z"/><path fill="#E4786D" d="M474.253 464.425C487.648 463.598 502.117 464.754 515.625 464.28C520.891 464.096 528.556 463.951 533.345 465.882C539.317 468.323 544.079 473.032 546.586 478.976C549.278 485.482 548.352 502.011 548.354 509.749L548.36 553.938L548.352 610.84C548.349 620.747 548.387 630.726 548.29 640.63C548.064 643.634 548.147 647.051 546.945 649.834C543.152 658.61 537.661 662.699 528.514 665.034C523.924 665.769 506.409 665.372 501.088 665.422C496.358 665.467 477.919 665.714 473.911 665.018C470.536 664.428 467.315 663.163 464.44 661.299C451.439 652.719 453.856 638.757 453.86 625.173L453.871 583.211L453.858 519.345C453.857 508.268 453.624 497.089 454.115 486.041C454.618 474.742 463.486 466.394 474.253 464.425Z"/><path fill="#29323B" d="M261.011 151.541L261.02 124.961C261.009 114.418 260.599 104.84 263.705 94.6391C271.276 69.7787 294.511 52.4331 320.512 52.2877C327.176 52.2504 333.903 56.7793 334.907 63.897C335.624 72.9331 335.299 82.4026 335.292 91.5226L335.287 151.567L261.011 151.541Z"/><path fill="#E4786D" d="M519.237 202.954C530.27 202.054 539.942 210.272 540.834 221.304C541.727 232.337 533.501 242.002 522.467 242.886C511.444 243.77 501.789 235.556 500.898 224.534C500.006 213.512 508.215 203.853 519.237 202.954Z"/><path fill="#29323B" d="M517.459 158.885C528.406 156.986 538.807 164.358 540.64 175.315C542.473 186.272 535.037 196.627 524.068 198.393C513.192 200.145 502.944 192.787 501.127 181.923C499.309 171.06 506.605 160.768 517.459 158.885Z"/><path fill="#438AEB" d="M499.21 385.435C509.914 383.733 519.989 390.977 521.781 401.665C523.573 412.353 516.412 422.487 505.739 424.368C494.938 426.272 484.656 419.008 482.842 408.193C481.028 397.378 488.379 387.158 499.21 385.435Z"/><path fill="#E4786D" d="M560.115 159.152C570.889 157.346 581.081 164.633 582.856 175.41C584.632 186.188 577.317 196.358 566.533 198.103C555.792 199.842 545.669 192.562 543.901 181.827C542.132 171.092 549.384 160.95 560.115 159.152Z"/><path fill="#E4786D" d="M562.759 203.191C573.624 202.85 582.72 211.356 583.106 222.218C583.492 233.081 575.023 242.211 564.161 242.642C553.235 243.076 544.038 234.546 543.65 223.62C543.262 212.694 551.83 203.534 562.759 203.191Z"/><path fill="#29323B" d="M468.267 424.781C475.34 424.161 482.201 427.389 486.232 433.234C490.264 439.078 490.844 446.637 487.752 453.028C484.66 459.419 478.372 463.656 471.287 464.123C460.496 464.834 451.142 456.728 450.315 445.946C449.487 435.164 457.493 425.725 468.267 424.781Z"/><path fill="#29323B" d="M560.902 113.533C571.659 112.172 581.499 119.746 582.934 130.492C584.37 141.238 576.864 151.128 566.127 152.639C555.284 154.164 545.273 146.568 543.823 135.716C542.373 124.864 550.039 114.907 560.902 113.533Z"/><path fill="#29323B" d="M534.242 424.787C545.038 423.9 554.529 431.883 555.505 442.669C556.481 453.456 548.575 463.012 537.796 464.076C526.891 465.152 517.198 457.135 516.211 446.223C515.224 435.31 523.321 425.685 534.242 424.787Z"/><path fill="#29323B" d="M474.261 202.444C484.947 200.172 495.445 207.018 497.673 217.713C499.901 228.407 493.011 238.875 482.306 241.059C471.664 243.23 461.269 236.389 459.054 225.757C456.839 215.125 463.637 204.703 474.261 202.444Z"/></svg>