<?xml version="1.0" encoding="utf-8" ?><svg xmlns="http://www.w3.org/2000/svg" xmlns:xlink="http://www.w3.org/1999/xlink" width="804" height="744" viewBox="0 0 804 744"><path d="M0 0L804 0L804 1.90404L804 744L2.44162 744L0 744L0 0Z"/><path fill="#1D1C1D" d="M0 0L804 0L804 1.90404L2.42469 1.93125L2.44162 744L0 744L0 0Z"/><path fill="#438AEC" d="M263.707 110.156C263.759 96.8205 269.666 82.8418 278.374 72.8459C288.901 60.8319 303.755 53.4735 319.69 52.3787C329.33 51.7191 337.062 55.6495 337.718 66.1913C338.348 73.6517 337.926 88.0311 337.92 95.9243L337.921 151.596C348.609 151.611 359.44 151.718 370.116 151.615C347.699 145.678 349.406 129.319 349.755 110.085C349.914 101.333 349.253 91.9506 349.817 83.2411C349.935 81.1363 350.265 79.0488 350.802 77.0105C352.484 70.7914 356.627 65.5263 362.276 62.4301C369.273 58.5294 379.239 59.4839 387.155 59.4907L414.123 59.5246L447.226 59.5072C453.428 59.4997 461.327 59.2954 467.375 59.7108C472.843 60.0666 478.257 61.0203 483.518 62.5549C503.186 68.2972 519.753 81.6431 529.553 99.6378C534.538 108.868 537.324 117.679 538.504 128.083C539.805 139.559 538.864 148.298 525.92 151.653C523.187 152.167 517.428 152.012 514.462 152.004L495.506 151.935C470.463 151.864 420.692 151.967 393.135 152.017C392.983 152.169 392.831 152.32 392.678 152.471L392.64 152.628C413.955 156.871 431.183 167.127 443.448 185.388C449.95 195.068 454.056 205.91 455.694 217.296C456.993 226.325 457.643 235.199 448.982 240.618C447.228 241.863 444.341 242.392 442.163 242.469C431.706 242.843 421.185 242.482 410.717 242.602C386.513 242.88 362.157 242.231 337.968 242.627C337.921 248.63 337.906 254.633 337.921 260.636L510.715 260.646L557.764 260.626C570.569 260.622 584.857 259.832 597.198 262.471C631.735 269.945 657.176 301.328 657.589 336.619C657.689 345.178 651.903 352.377 643.211 352.688C632.947 353.056 622.523 352.855 612.242 352.853L548.916 352.848L337.972 352.872L337.911 529.518L337.928 580.652C337.93 586.539 338.311 600.994 337.718 605.987C337.085 638.863 311.736 664.677 278.538 665.382C271.18 665.539 264.304 660.205 263.699 652.624C263.362 649.137 263.55 642.286 263.55 638.49L263.567 611.177L263.573 523.957L263.535 242.591L248.077 242.617C247.645 273.986 248.051 306.342 248.05 337.773L248.047 525.525L248.049 603.531L248.074 627.679C248.078 632.382 248.246 638.337 247.817 642.894C247.46 657.504 242.556 670.395 232.703 681.315C221.972 693.272 206.917 700.457 190.872 701.278C186.094 701.485 181.724 700.727 178.139 697.238C175.651 694.787 174.145 691.511 173.905 688.027C173.537 683.218 173.777 674.81 173.777 669.727L173.783 635.812L173.783 529.146L173.843 224.311C173.571 222.929 173.717 207.602 173.716 205.173L173.701 182.527C173.7 179.425 173.527 173.316 173.852 170.411C172.897 148.745 172.788 129.268 187.13 111.708C197.423 99.0085 212.426 91.0277 228.709 89.5909C238.365 88.7062 247.03 91.8151 247.8 102.839C248.317 107.41 248.083 115.175 248.081 120.044L248.06 151.593L263.558 151.564L263.545 124.491C263.545 120.677 263.362 113.707 263.707 110.156Z"/><path fill="#DCDCDB" d="M173.843 224.311C174.859 225.822 175.78 228.074 176.597 229.758C183.992 244.999 199.832 242.686 213.848 242.662L247.912 242.624C247.519 277.258 247.842 312.41 247.842 347.108L247.817 642.894C247.46 657.504 242.556 670.395 232.703 681.315C221.972 693.272 206.917 700.457 190.872 701.278C186.094 701.485 181.724 700.727 178.139 697.238C175.651 694.787 174.145 691.511 173.905 688.027C173.537 683.218 173.777 674.81 173.777 669.727L173.783 635.812L173.783 529.146L173.843 224.311Z"/><path fill="#DCDCDB" d="M263.763 242.626L337.771 242.625C337.529 248.222 337.695 254.947 337.691 260.629L306.255 260.635C295.015 260.626 282.841 258.873 274.236 267.582C268.145 273.746 267.113 280.45 267.063 288.752L267.086 311.24C267.072 317.443 266.658 329.452 268.062 335.011C269.092 339.131 271.225 342.892 274.231 345.891C277.273 348.888 281.07 351.005 285.219 352.017C290.709 353.365 301.134 352.907 307.196 352.904L337.772 352.891C337.47 363.766 337.685 375.582 337.684 386.555L337.681 447.379L337.718 605.987C337.085 638.863 311.736 664.677 278.538 665.382C271.18 665.539 264.304 660.205 263.699 652.624C264.365 638.956 263.79 620.442 263.791 606.377L263.792 515.824L263.763 242.626Z"/><path fill="#DCDCDB" d="M263.707 110.156C263.759 96.8205 269.666 82.8418 278.374 72.8459C288.901 60.8319 303.755 53.4735 319.69 52.3787C329.33 51.7191 337.062 55.6495 337.718 66.1913L337.692 151.587C313.233 151.608 288.201 151.888 263.777 151.573C263.783 138.236 264.124 123.368 263.707 110.156Z"/><path fill="#DCDCDB" d="M173.852 170.411C172.897 148.745 172.788 129.268 187.13 111.708C197.423 99.0085 212.426 91.0277 228.709 89.5909C238.365 88.7062 247.03 91.8151 247.8 102.839L247.875 151.581L214.628 151.575C207.645 151.565 199.296 151.085 192.552 152.36C183.393 154.091 177.385 160.835 174.443 169.354C174.262 169.874 174.193 169.904 173.852 170.411Z"/><path fill="#07142A" d="M391.434 151.477C422.334 152.096 455.412 151.544 486.5 151.527L512.238 151.512C515.731 151.514 522.766 151.342 525.92 151.653C523.187 152.167 517.428 152.012 514.462 152.004L495.506 151.935C470.463 151.864 420.692 151.967 393.135 152.017C392.983 152.169 392.831 152.32 392.678 152.471L392.64 152.628C391.197 152.535 388.521 152.1 387.003 151.897C388.02 151.624 390.29 151.55 391.434 151.477Z"/><path fill="#346CC2" d="M380.137 151.433C384.066 151.1 387.523 150.952 391.434 151.477C390.29 151.55 388.02 151.624 387.003 151.897C384.646 152.252 382.484 151.788 380.137 151.433Z"/><path fill="#E5786D" d="M369.72 367.547C378.909 366.915 390.959 367.421 400.352 367.287C405.238 367.217 418.171 367.013 422.667 367.538C424.901 367.801 427.078 368.418 429.118 369.367C434.967 371.976 439.51 376.844 441.711 382.859C442.552 385.19 443.04 387.633 443.157 390.108C443.707 401.497 443.243 416.388 443.243 428.147L443.244 502.793L443.238 593.699C443.236 609.129 443.232 624.565 443.186 639.995C443.145 653.334 435.981 662.303 422.975 665.051C420.991 665.328 418.813 665.412 416.805 665.393C401.585 665.25 386.285 665.794 371.086 665.138C368.916 665.044 366.095 664.193 364.116 663.334C358.282 660.771 353.72 655.974 351.454 650.018C350.533 647.538 349.994 644.933 349.855 642.292C349.29 630.078 349.765 614.406 349.765 601.803L349.765 523.409L349.773 436.911C349.775 422.097 349.737 407.278 349.836 392.465C349.925 379.026 356.932 370.71 369.72 367.547Z"/><path fill="#E5786D" d="M584.583 374.636C594.335 374.095 605.822 374.558 615.703 374.413C620.604 374.341 632.981 374.162 637.462 374.79C640.247 375.197 642.929 376.13 645.366 377.539C650.92 380.667 654.995 385.884 656.684 392.032C658.001 396.939 657.536 419.077 657.534 425.464L657.506 492.756L657.505 592.616L657.535 624.86C657.559 643.158 659.806 659.413 637.751 665.019C632.949 665.706 617.481 665.474 612.113 665.424C605.598 665.364 590.094 665.866 584.144 664.976C581.253 664.532 578.474 663.539 575.956 662.05C570.432 658.798 566.461 653.448 564.947 647.219C563.739 642.15 564.17 619.471 564.17 613.178L564.191 541.808L564.2 445.07L564.159 414.575C564.13 396.301 562.223 379.617 584.583 374.636Z"/><path fill="#E5786D" d="M476.656 464.519C483.615 463.817 497.945 464.514 505.53 464.288C509.705 464.164 526.972 464.055 530.363 464.502C533.49 464.91 536.503 465.943 539.222 467.541C544.658 470.773 548.592 476.028 550.163 482.155C551.35 486.954 550.963 503.276 550.964 509.18L550.966 555.541L550.956 612.569C550.954 622.722 551.189 632.96 550.716 643.091C550.157 655.07 542.041 662.315 531.005 665.039C524.381 666.051 511.901 665.6 504.798 665.427C493.548 665.153 477.579 667.471 467.825 661.806C454.194 653.889 456.441 639.082 456.436 625.746L456.429 583.542L456.437 519.264C456.44 508.479 456.234 497.503 456.617 486.735C457.048 474.639 465.263 467.051 476.656 464.519Z"/><path fill="#DCDCDB" d="M519.908 158.904C530.774 156.956 541.167 164.168 543.148 175.029C545.128 185.89 537.948 196.306 527.094 198.318C516.194 200.34 505.726 193.122 503.737 182.216C501.748 171.309 508.996 160.861 519.908 158.904Z"/><path fill="#E5786D" d="M519.365 203.328C530.195 201.076 540.799 208.036 543.042 218.869C545.285 229.701 538.318 240.3 527.485 242.535C516.663 244.768 506.078 237.81 503.837 226.988C501.597 216.167 508.547 205.577 519.365 203.328Z"/><path fill="#DCDCDB" d="M469.428 424.961C480.207 423.24 490.335 430.596 492.034 441.379C493.732 452.161 486.356 462.275 475.571 463.952C464.817 465.624 454.739 458.274 453.045 447.522C451.351 436.77 458.681 426.677 469.428 424.961Z"/><path fill="#DCDCDB" d="M535.116 424.995C545.845 423.178 556.02 430.391 557.859 441.117C559.699 451.844 552.508 462.035 541.787 463.897C531.033 465.765 520.805 458.547 518.961 447.789C517.116 437.03 524.354 426.817 535.116 424.995Z"/><path fill="#DCDCDB" d="M562.533 113.679C573.252 111.794 583.473 118.944 585.378 129.66C587.283 140.376 580.152 150.612 569.441 152.537C558.7 154.467 548.433 147.313 546.523 136.568C544.613 125.824 551.786 115.569 562.533 113.679Z"/><path fill="#E5786D" d="M561.989 203.595C568.951 202.169 576.142 204.597 580.814 209.951C585.487 215.305 586.92 222.759 584.566 229.465C582.211 236.17 576.433 241.092 569.439 242.349C558.805 244.26 548.612 237.263 546.572 226.653C544.533 216.042 551.405 205.764 561.989 203.595Z"/><path fill="#438AEC" d="M502.653 385.317C513.496 384.086 523.28 391.893 524.487 402.74C525.695 413.587 517.869 423.355 507.02 424.54C496.203 425.722 486.472 417.923 485.267 407.108C484.063 396.293 491.841 386.544 502.653 385.317Z"/><path fill="#E5786D" d="M562.604 159.181C573.316 157.336 583.502 164.502 585.385 175.208C587.267 185.914 580.137 196.126 569.439 198.047C558.687 199.977 548.414 192.803 546.522 182.044C544.63 171.284 551.839 161.035 562.604 159.181Z"/><path fill="#DCDCDB" d="M477.319 202.345C488.086 200.338 498.425 207.488 500.349 218.271C502.274 229.054 495.046 239.339 484.25 241.181C473.569 243.003 463.419 235.869 461.516 225.202C459.612 214.535 466.668 204.33 477.319 202.345Z"/></svg>