<?xml version="1.0" encoding="utf-8" ?><svg xmlns="http://www.w3.org/2000/svg" xmlns:xlink="http://www.w3.org/1999/xlink" width="502" height="438" viewBox="0 0 502 438"><path fill="white" d="M0 0L502 0L502 438L0 438L0 0Z"/><path fill="#C96391" d="M198.358 133.328C200.748 130.41 202.498 127.496 205.18 124.585C219.285 109.277 234.655 99.995 255.377 96.9239C278.057 93.5626 298.302 97.6847 316.832 111.468C331.22 122.171 342.262 138.409 347.402 155.54C349.01 160.899 350.076 167.535 350.911 173.05C363.789 174.498 370.985 176.735 381.996 183.984C412.601 204.132 419.823 248.643 398.894 278.354C385.597 297.229 363.652 307.73 340.996 311.704C293.36 320.151 244.813 302.737 213.408 265.938C209.086 260.851 204.608 254.667 200.97 249.124C194.266 238.908 189.08 228.211 179.428 220.324C175.488 217.104 172.031 214.338 167.583 211.683C165.582 210.49 162.51 209.163 160.734 207.918C155.427 205.55 152.647 204.498 146.925 203.198C142.975 202.734 139.828 202.294 135.847 202.239C125.416 202.095 114.378 206.882 106.309 213.326C96.6604 221.033 88.9887 232.389 87.8883 244.948C86.645 259.136 89.0088 270.454 98.1126 281.678C106.069 291.487 117.654 298.717 130.279 299.828C138.846 300.581 149.135 300.225 157.843 300.214L204.461 300.238L217.809 300.227C219.816 300.218 223.988 300.108 225.757 300.377C227.369 300.612 228.835 301.438 229.871 302.695C231.098 304.157 231.659 306.064 231.421 307.957C230.97 311.514 228.018 313.432 224.637 313.488C220.459 313.558 216.266 313.417 212.082 313.42L182.793 313.455L148.878 313.405C136.592 313.368 124.965 314.144 113.439 308.929C110.517 307.789 105.464 305.465 102.923 303.67C102.568 303.486 102.217 303.292 101.873 303.088C94.8769 298.937 85.39 288.697 81.3939 281.591C79.2916 277.805 77.709 273.754 76.6886 269.546C67.1977 231.691 87.754 199.192 125.52 189.833C126.001 185.729 126.273 180.335 127.376 176.422C131.825 160.649 140.457 148.914 154.327 140.483C167.466 132.331 183.314 129.756 198.358 133.328Z"/><path fill="#99416F" d="M146.925 203.198C149.531 202.398 159.304 205.72 160.734 207.918C155.427 205.55 152.647 204.498 146.925 203.198Z"/><path fill="white" d="M211.754 137.768C212.847 136.411 213.941 134.99 215.097 133.692C258.107 85.4046 330.967 110.981 337.688 174.604C339.796 193.389 334.246 212.232 322.293 226.876C320.996 228.466 319.597 229.903 317.965 231.525C312.849 236.607 303.616 241.122 312.219 248.515C313.306 249.449 315.133 249.621 316.48 249.349C323.566 247.667 334.7 232.967 338.628 227.202C346.699 215.357 350.573 200.665 350.818 186.428C381.04 189.49 401.024 217.66 396.711 247.207C395.191 260.664 387.767 273.842 376.982 282.28C355.952 298.733 327.931 302.395 302.032 299.583C269.218 296.021 240.013 278.037 219.885 252.202C212.966 243.322 208.15 234.135 201.692 225.059C187.299 204.698 164.81 191.549 140.007 188.993C139.775 188.967 139.542 188.946 139.31 188.928C138.888 178.547 144.474 166.976 151.407 159.547C169.008 140.687 200.665 139.973 217.862 159.886C223.962 166.948 227.657 175.258 229.141 184.451C229.606 187.375 229.125 190.651 230.548 193.349C231.718 195.496 234.455 196.821 236.838 196.701C238.441 196.625 239.948 195.913 241.025 194.722C242.497 193.093 242.901 191.002 242.719 188.878C242.674 188.391 242.613 187.905 242.537 187.422C242.507 188.084 242.566 188.955 242.256 189.457C241.766 187.535 241.703 183.32 241.328 180.981C240.929 178.502 238.88 172.009 239.12 169.972C238.338 167.265 237.077 164.725 235.887 162.202C230.301 150.364 222.063 144.748 211.754 137.768Z"/><path fill="#99416F" d="M239.12 169.972C241.036 175.619 242.448 181.419 242.537 187.422C242.507 188.084 242.566 188.955 242.256 189.457C241.766 187.535 241.703 183.32 241.328 180.981C240.929 178.502 238.88 172.009 239.12 169.972Z"/></svg>